<?xml version="1.0" encoding="UTF-8"?>
<!DOCTYPE svg PUBLIC "-//W3C//DTD SVG 1.1//EN" "http://www.w3.org/Graphics/SVG/1.1/DTD/svg11.dtd">
<svg xmlns="http://www.w3.org/2000/svg" version="1.1" width="1000px" height="1000px" style="shape-rendering:geometricPrecision; text-rendering:geometricPrecision; image-rendering:optimizeQuality; fill-rule:evenodd; clip-rule:evenodd" xmlns:xlink="http://www.w3.org/1999/xlink">
<g><path style="opacity:1" fill="#1dd561" d="M 497.5,19.5 C 647.887,22.4478 772.053,80.7811 870,194.5C 962.514,311.886 995.847,444.552 970,592.5C 937.967,738.123 857.467,847.623 728.5,921C 610.014,982.771 486.681,995.104 358.5,958C 216.642,911.139 115.809,819.306 56,682.5C 14.1454,576.237 9.14542,468.237 41,358.5C 86.5955,219.241 176.096,119.408 309.5,59C 369.688,33.4636 432.354,20.2969 497.5,19.5 Z"/></g>
<g><path style="opacity:1" fill="#8db19a" d="M 776.5,296.5 C 774.833,296.5 773.167,296.5 771.5,296.5C 771.5,295.167 771.5,293.833 771.5,292.5C 773.167,292.5 774.833,292.5 776.5,292.5C 776.5,293.833 776.5,295.167 776.5,296.5 Z"/></g>
<g><path style="opacity:1" fill="#2a8e4e" d="M 327.5,301.5 C 326.566,300.432 326.232,299.099 326.5,297.5C 318.16,297.334 309.827,297.5 301.5,298C 300.809,299.067 300.309,300.234 300,301.5C 299.329,302.252 298.496,302.586 297.5,302.5C 298.089,300.648 298.756,298.815 299.5,297C 308.827,296.5 318.161,296.334 327.5,296.5C 327.5,298.167 327.5,299.833 327.5,301.5 Z"/></g>
<g><path style="opacity:1" fill="#29924f" d="M 697.5,297.5 C 689.5,297.5 681.5,297.5 673.5,297.5C 673.5,299.167 673.5,300.833 673.5,302.5C 670.721,302.279 668.054,302.612 665.5,303.5C 664.833,303.5 664.5,303.167 664.5,302.5C 667.054,301.612 669.721,301.279 672.5,301.5C 672.5,299.833 672.5,298.167 672.5,296.5C 681.017,296.174 689.35,296.507 697.5,297.5 Z"/></g>
<g><path style="opacity:1" fill="#2a8c4d" d="M 754.5,297.5 C 759.975,296.511 765.642,296.178 771.5,296.5C 767.833,297.167 764.167,297.833 760.5,298.5C 758.5,298.167 756.5,297.833 754.5,297.5 Z"/></g>
<g><path style="opacity:1" fill="#323333" d="M 214.5,298.5 C 223.173,298.334 231.84,298.5 240.5,299C 241.814,299.985 242.814,301.152 243.5,302.5C 244.5,302.5 245.5,302.5 246.5,302.5C 246.263,303.791 246.596,304.791 247.5,305.5C 247.5,307.5 247.5,309.5 247.5,311.5C 248.959,311.433 250.292,311.766 251.5,312.5C 251.5,313.5 251.5,314.5 251.5,315.5C 252.234,316.708 252.567,318.041 252.5,319.5C 253.791,319.263 254.791,319.596 255.5,320.5C 253.335,320.116 251.668,320.783 250.5,322.5C 251.477,443.362 251.81,564.362 251.5,685.5C 252.833,685.5 254.167,685.5 255.5,685.5C 254.817,687.176 253.483,687.843 251.5,687.5C 250.929,689.36 250.929,691.027 251.5,692.5C 246.582,692.172 244.582,694.505 245.5,699.5C 245.167,700.167 244.833,700.833 244.5,701.5C 243.539,703.265 243.205,705.265 243.5,707.5C 240.391,707.264 237.391,707.597 234.5,708.5C 230.167,707.167 225.833,707.167 221.5,708.5C 221.167,708.5 220.833,708.5 220.5,708.5C 218.735,707.539 216.735,707.205 214.5,707.5C 214.808,705.076 214.474,702.743 213.5,700.5C 212.264,699.754 210.93,699.421 209.5,699.5C 209.389,698.883 209.056,698.383 208.5,698C 206.19,697.503 203.857,697.337 201.5,697.5C 201.5,696.167 201.5,694.833 201.5,693.5C 201.843,691.517 201.176,690.183 199.5,689.5C 199.833,568.666 199.5,447.999 198.5,327.5C 199.736,323.035 199.736,318.701 198.5,314.5C 198.833,313.5 199.5,312.833 200.5,312.5C 201.468,310.393 201.802,308.059 201.5,305.5C 207.554,306.941 211.054,304.608 212,298.5C 212.77,297.402 213.603,297.402 214.5,298.5 Z"/></g>
<g><path style="opacity:1" fill="#333333" d="M 327.5,301.5 C 328.568,302.434 329.901,302.768 331.5,302.5C 331.19,305.713 331.523,308.713 332.5,311.5C 332.783,312.289 333.283,312.956 334,313.5C 335.667,312.167 337.333,312.167 339,313.5C 339.497,315.81 339.663,318.143 339.5,320.5C 339.5,322.167 339.5,323.833 339.5,325.5C 340.833,325.5 342.167,325.5 343.5,325.5C 343.5,327.167 343.5,328.833 343.5,330.5C 342.542,330.953 341.708,331.619 341,332.5C 340.667,372.833 340.333,413.167 340,453.5C 340.379,457.122 338.879,459.289 335.5,460C 340.044,460.022 341.544,462.188 340,466.5C 338.266,467.249 336.433,467.749 334.5,468C 335.833,468.667 335.833,469.333 334.5,470C 337.892,471.783 341.392,471.949 345,470.5C 347,471.167 349,471.833 351,472.5C 391.291,471.918 430.958,471.918 470,472.5C 470.464,471.906 470.631,471.239 470.5,470.5C 473.623,471.227 476.29,472.727 478.5,475C 476.365,479.35 477.699,481.683 482.5,482C 484.355,484.045 485.689,486.379 486.5,489C 489.405,490.037 492.239,491.204 495,492.5C 495.178,496.212 496.345,499.546 498.5,502.5C 497.675,503.386 496.675,503.719 495.5,503.5C 495.5,505.833 495.5,508.167 495.5,510.5C 492.287,511.06 489.287,512.227 486.5,514C 485.689,516.621 484.355,518.955 482.5,521C 482.833,521.333 483.167,521.667 483.5,522C 482.095,523.269 480.429,523.769 478.5,523.5C 478.5,525.167 478.5,526.833 478.5,528.5C 477.5,528.5 476.5,528.5 475.5,528.5C 475.5,529.5 475.5,530.5 475.5,531.5C 473.302,531.12 471.635,531.787 470.5,533.5C 429.051,531.68 387.385,530.847 345.5,531C 344.737,530.056 343.737,529.556 342.5,529.5C 340.472,531.641 337.972,532.974 335,533.5C 334.506,535.134 334.34,536.801 334.5,538.5C 336.262,538.357 337.929,538.691 339.5,539.5C 340.5,584.828 340.833,630.162 340.5,675.5C 341.5,675.5 342.5,675.5 343.5,675.5C 343.66,677.199 343.494,678.866 343,680.5C 342.259,679.359 341.425,679.359 340.5,680.5C 339.548,682.045 339.215,683.712 339.5,685.5C 339.5,687.833 339.5,690.167 339.5,692.5C 335.5,691.833 333.833,693.5 334.5,697.5C 333.5,697.5 332.5,697.5 331.5,697.5C 331.5,698.5 331.5,699.5 331.5,700.5C 329.856,700.286 328.356,700.62 327,701.5C 326.503,703.81 326.337,706.143 326.5,708.5C 323.5,708.5 320.5,708.5 317.5,708.5C 314.833,707.167 312.167,707.167 309.5,708.5C 306.609,707.597 303.609,707.264 300.5,707.5C 301.585,702.83 299.918,699.83 295.5,698.5C 294.081,697.549 292.415,697.216 290.5,697.5C 289.812,693.777 288.812,690.111 287.5,686.5C 288.653,684.432 288.653,682.432 287.5,680.5C 286.498,562.329 286.498,443.996 287.5,325.5C 287.5,323.833 287.5,322.167 287.5,320.5C 287.5,318.167 287.5,315.833 287.5,313.5C 287.833,312.833 288.167,312.167 288.5,311.5C 289.461,309.735 289.795,307.735 289.5,305.5C 291.857,305.663 294.19,305.497 296.5,305C 297.252,304.329 297.586,303.496 297.5,302.5C 298.496,302.586 299.329,302.252 300,301.5C 300.309,300.234 300.809,299.067 301.5,298C 309.827,297.5 318.16,297.334 326.5,297.5C 326.232,299.099 326.566,300.432 327.5,301.5 Z"/></g>
<g><path style="opacity:1" fill="#323232" d="M 697.5,297.5 C 697.5,299.167 697.5,300.833 697.5,302.5C 700.98,303.229 704.314,304.229 707.5,305.5C 707.205,307.735 707.539,309.735 708.5,311.5C 710.081,313.142 710.747,315.142 710.5,317.5C 711.157,438.017 711.157,558.684 710.5,679.5C 709.167,681.167 709.167,682.833 710.5,684.5C 710.5,684.833 710.5,685.167 710.5,685.5C 710.71,688.752 710.044,691.752 708.5,694.5C 707.596,695.209 707.263,696.209 707.5,697.5C 705.833,697.5 704.167,697.5 702.5,697.5C 702.5,698.5 702.5,699.5 702.5,700.5C 700.856,700.286 699.356,700.62 698,701.5C 697.505,703.473 697.338,705.473 697.5,707.5C 689.484,707.717 681.484,707.717 673.5,707.5C 673.5,705.167 673.5,702.833 673.5,700.5C 671.167,700.5 668.833,700.5 666.5,700.5C 666.693,697.189 665.693,694.522 663.5,692.5C 663.167,692.5 662.833,692.5 662.5,692.5C 662.048,688.837 661.548,685.17 661,681.5C 658.865,679.722 656.365,679.055 653.5,679.5C 654.154,632.282 653.487,585.282 651.5,538.5C 652.5,538.5 653.5,538.5 654.5,538.5C 654.333,583.835 654.5,629.168 655,674.5C 656.333,674.5 657.667,674.5 659,674.5C 659.333,669.5 659.667,664.5 660,659.5C 660.186,618.653 660.686,577.82 661.5,537C 661.394,529.343 658.061,527.51 651.5,531.5C 648.513,529.203 645.513,529.036 642.5,531C 607.495,531.833 572.495,531.667 537.5,530.5C 536.332,528.783 534.665,528.116 532.5,528.5C 532.5,531.833 532.5,535.167 532.5,538.5C 531.532,536.393 531.198,534.059 531.5,531.5C 528.618,531.392 526.285,530.226 524.5,528C 525.535,526.493 525.368,524.993 524,523.5C 523.667,523.833 523.333,524.167 523,524.5C 521.632,522.973 521.132,521.473 521.5,520C 519.155,519.803 516.989,519.303 515,518.5C 514.918,515.252 513.418,512.919 510.5,511.5C 509.786,508.973 509.12,506.473 508.5,504C 506.527,503.505 504.527,503.338 502.5,503.5C 502.5,502.167 502.5,500.833 502.5,499.5C 504.792,499.756 506.959,499.423 509,498.5C 508.808,494.519 510.308,491.519 513.5,489.5C 514.452,487.955 514.785,486.288 514.5,484.5C 516.924,484.808 519.257,484.474 521.5,483.5C 523.618,480.043 525.452,476.376 527,472.5C 528.356,471.62 529.856,471.286 531.5,471.5C 531.5,470.167 531.5,468.833 531.5,467.5C 572.514,468.161 613.18,467.494 653.5,465.5C 653.333,419.165 653.5,372.832 654,326.5C 656.908,326.092 659.408,324.925 661.5,323C 661.167,322.667 660.833,322.333 660.5,322C 661.207,318.839 661.874,315.672 662.5,312.5C 663.224,309.477 664.224,306.477 665.5,303.5C 668.054,302.612 670.721,302.279 673.5,302.5C 673.5,300.833 673.5,299.167 673.5,297.5C 681.5,297.5 689.5,297.5 697.5,297.5 Z"/></g>
<g><path style="opacity:1" fill="#333333" d="M 754.5,297.5 C 756.5,297.833 758.5,298.167 760.5,298.5C 768.167,298.5 775.833,298.5 783.5,298.5C 783.286,300.144 783.62,301.644 784.5,303C 786.473,303.495 788.473,303.662 790.5,303.5C 790.336,306.187 790.503,308.854 791,311.5C 793.623,312.627 796.123,313.961 798.5,315.5C 798.831,439.903 798.498,564.237 797.5,688.5C 796.733,689.172 796.066,690.005 795.5,691C 796.423,693.041 796.756,695.208 796.5,697.5C 793.167,698.5 789.833,699.5 786.5,700.5C 785.603,699.402 784.77,699.402 784,700.5C 783.503,702.81 783.337,705.143 783.5,707.5C 776.646,707.176 769.979,707.509 763.5,708.5C 763.167,708.5 762.833,708.5 762.5,708.5C 760.052,707.527 757.385,707.194 754.5,707.5C 754.795,705.265 754.461,703.265 753.5,701.5C 753.158,700.662 752.492,700.328 751.5,700.5C 749.987,696.682 749.32,692.682 749.5,688.5C 749.218,687.222 748.551,686.222 747.5,685.5C 748.833,625.17 749.5,564.504 749.5,503.5C 749.333,442.833 749.167,382.167 749,321.5C 746.959,320.577 744.792,320.244 742.5,320.5C 744.265,319.539 746.265,319.205 748.5,319.5C 748.629,317.784 748.962,316.117 749.5,314.5C 748.905,309.483 750.238,305.15 753.5,301.5C 753.232,299.901 753.566,298.568 754.5,297.5 Z"/></g>
<g><path style="opacity:1" fill="#08f41b" d="M 708.5,304.5 C 708.125,301.093 709.125,300.593 711.5,303C 710.756,304.039 709.756,304.539 708.5,304.5 Z"/></g>
<g><path style="opacity:1" fill="#2c7748" d="M 327.5,301.5 C 329.415,301.216 331.081,301.549 332.5,302.5C 332.5,305.5 332.5,308.5 332.5,311.5C 331.523,308.713 331.19,305.713 331.5,302.5C 329.901,302.768 328.568,302.434 327.5,301.5 Z"/></g>
<g><path style="opacity:1" fill="#2c7948" d="M 697.5,297.5 C 698.434,298.568 698.768,299.901 698.5,301.5C 701.98,302.229 705.314,303.229 708.5,304.5C 708.5,304.833 708.5,305.167 708.5,305.5C 708.5,307.5 708.5,309.5 708.5,311.5C 707.539,309.735 707.205,307.735 707.5,305.5C 704.314,304.229 700.98,303.229 697.5,302.5C 697.5,300.833 697.5,299.167 697.5,297.5 Z"/></g>
<g><path style="opacity:1" fill="#424f48" d="M 771.5,296.5 C 773.167,296.5 774.833,296.5 776.5,296.5C 779.287,297.477 782.287,297.81 785.5,297.5C 785.5,299.167 785.5,300.833 785.5,302.5C 787.5,302.5 789.5,302.5 791.5,302.5C 791.5,303.5 791.5,304.5 791.5,305.5C 792.833,305.5 794.167,305.5 795.5,305.5C 795.41,308.152 796.076,310.485 797.5,312.5C 798.5,312.833 799.167,313.5 799.5,314.5C 798.833,314.5 798.5,314.833 798.5,315.5C 796.123,313.961 793.623,312.627 791,311.5C 790.503,308.854 790.336,306.187 790.5,303.5C 788.473,303.662 786.473,303.495 784.5,303C 783.62,301.644 783.286,300.144 783.5,298.5C 775.833,298.5 768.167,298.5 760.5,298.5C 764.167,297.833 767.833,297.167 771.5,296.5 Z"/></g>
<g><path style="opacity:1" fill="#2a9952" d="M 297.5,302.5 C 297.586,303.496 297.252,304.329 296.5,305C 294.19,305.497 291.857,305.663 289.5,305.5C 289.795,307.735 289.461,309.735 288.5,311.5C 288.337,309.143 288.503,306.81 289,304.5C 291.826,303.787 294.66,303.12 297.5,302.5 Z"/></g>
<g><path style="opacity:1" fill="#407753" d="M 664.5,302.5 C 664.5,303.167 664.833,303.5 665.5,303.5C 664.224,306.477 663.224,309.477 662.5,312.5C 662.167,312.5 661.833,312.5 661.5,312.5C 661.5,312.167 661.5,311.833 661.5,311.5C 662.317,309.031 662.817,306.365 663,303.5C 663.383,302.944 663.883,302.611 664.5,302.5 Z"/></g>
<g><path style="opacity:1" fill="#28a054" d="M 708.5,305.5 C 710.118,309.586 711.285,313.919 712,318.5C 713.356,319.38 714.856,319.714 716.5,319.5C 716.5,321.5 716.5,323.5 716.5,325.5C 716.167,325.5 715.833,325.5 715.5,325.5C 715.5,323.833 715.5,322.167 715.5,320.5C 714.167,320.5 712.833,320.5 711.5,320.5C 710.596,319.791 710.263,318.791 710.5,317.5C 710.747,315.142 710.081,313.142 708.5,311.5C 708.5,309.5 708.5,307.5 708.5,305.5 Z"/></g>
<g><path style="opacity:1" fill="#2a8a4d" d="M 753.5,301.5 C 750.238,305.15 748.905,309.483 749.5,314.5C 749.167,314.5 748.833,314.5 748.5,314.5C 748.18,311.102 748.513,307.768 749.5,304.5C 750.283,302.712 751.616,301.712 753.5,301.5 Z"/></g>
<g><path style="opacity:1" fill="#299952" d="M 776.5,296.5 C 779.833,296.5 783.167,296.5 786.5,296.5C 786.5,298.167 786.5,299.833 786.5,301.5C 790,301.61 793.334,302.443 796.5,304C 797.444,306.719 797.777,309.552 797.5,312.5C 796.076,310.485 795.41,308.152 795.5,305.5C 794.167,305.5 792.833,305.5 791.5,305.5C 791.5,304.5 791.5,303.5 791.5,302.5C 789.5,302.5 787.5,302.5 785.5,302.5C 785.5,300.833 785.5,299.167 785.5,297.5C 782.287,297.81 779.287,297.477 776.5,296.5 Z"/></g>
<g><path style="opacity:1" fill="#2c7247" d="M 287.5,313.5 C 287.5,315.833 287.5,318.167 287.5,320.5C 286.833,320.5 286.167,320.5 285.5,320.5C 286.065,318.048 286.732,315.715 287.5,313.5 Z"/></g>
<g><path style="opacity:1" fill="#458059" d="M 198.5,314.5 C 199.736,318.701 199.736,323.035 198.5,327.5C 198.167,327.5 197.833,327.5 197.5,327.5C 196.287,326.503 196.454,325.503 198,324.5C 198.498,321.183 198.665,317.85 198.5,314.5 Z"/></g>
<g><path style="opacity:1" fill="#44554b" d="M 251.5,315.5 C 253.167,315.5 254.833,315.5 256.5,315.5C 256.815,319.371 256.482,323.038 255.5,326.5C 255.5,324.5 255.5,322.5 255.5,320.5C 254.791,319.596 253.791,319.263 252.5,319.5C 252.567,318.041 252.234,316.708 251.5,315.5 Z"/></g>
<g><path style="opacity:1" fill="#2c6f46" d="M 799.5,314.5 C 800.165,439.504 799.498,564.171 797.5,688.5C 798.498,564.237 798.831,439.903 798.5,315.5C 798.5,314.833 798.833,314.5 799.5,314.5 Z"/></g>
<g><path style="opacity:1" fill="#29904e" d="M 748.5,314.5 C 746.735,315.461 744.735,315.795 742.5,315.5C 741.339,439.139 741.172,562.806 742,686.5C 742.717,687.044 743.217,687.711 743.5,688.5C 742.504,688.586 741.671,688.252 741,687.5C 740.333,563.5 740.333,439.5 741,315.5C 743.381,314.565 745.881,314.232 748.5,314.5 Z"/></g>
<g><path style="opacity:1" fill="#299550" d="M 661.5,311.5 C 661.5,311.833 661.5,312.167 661.5,312.5C 660.527,314.948 660.194,317.615 660.5,320.5C 658.167,320.5 655.833,320.5 653.5,320.5C 655.265,319.539 657.265,319.205 659.5,319.5C 658.964,316.302 659.631,313.635 661.5,311.5 Z"/></g>
<g><path style="opacity:1" fill="#2a884c" d="M 244.5,701.5 C 244.833,700.833 245.167,700.167 245.5,699.5C 247.245,698.194 249.245,697.194 251.5,696.5C 250.637,695.274 250.637,693.94 251.5,692.5C 250.929,691.027 250.929,689.36 251.5,687.5C 253.483,687.843 254.817,687.176 255.5,685.5C 256.543,565.688 256.543,446.022 255.5,326.5C 256.482,323.038 256.815,319.371 256.5,315.5C 254.833,315.5 253.167,315.5 251.5,315.5C 251.5,314.5 251.5,313.5 251.5,312.5C 250.918,310.331 250.918,307.998 251.5,305.5C 250.167,305.5 248.833,305.5 247.5,305.5C 246.596,304.791 246.263,303.791 246.5,302.5C 245.5,302.5 244.5,302.5 243.5,302.5C 243.714,300.856 243.38,299.356 242.5,298C 232.991,297.176 223.657,297.342 214.5,298.5C 213.603,297.402 212.77,297.402 212,298.5C 211.054,304.608 207.554,306.941 201.5,305.5C 201.802,308.059 201.468,310.393 200.5,312.5C 200.5,309.833 200.5,307.167 200.5,304.5C 206.735,305.764 210.402,303.264 211.5,297C 222.167,296.333 232.833,296.333 243.5,297C 244.38,298.356 244.714,299.856 244.5,301.5C 246.745,303.361 249.412,304.361 252.5,304.5C 252.5,307.833 252.5,311.167 252.5,314.5C 254.167,314.5 255.833,314.5 257.5,314.5C 257.5,439.167 257.5,563.833 257.5,688.5C 255.833,688.5 254.167,688.5 252.5,688.5C 252.665,691.85 252.498,695.183 252,698.5C 249.536,699.651 247.036,700.651 244.5,701.5 Z"/></g>
<g><path style="opacity:1" fill="#66716b" d="M 247.5,305.5 C 248.833,305.5 250.167,305.5 251.5,305.5C 250.918,307.998 250.918,310.331 251.5,312.5C 250.292,311.766 248.959,311.433 247.5,311.5C 247.5,309.5 247.5,307.5 247.5,305.5 Z"/></g>
<g><path style="opacity:1" fill="#3c4942" d="M 214.5,298.5 C 223.657,297.342 232.991,297.176 242.5,298C 243.38,299.356 243.714,300.856 243.5,302.5C 242.814,301.152 241.814,299.985 240.5,299C 231.84,298.5 223.173,298.334 214.5,298.5 Z"/></g>
<g><path style="opacity:1" fill="#435149" d="M 285.5,320.5 C 286.167,320.5 286.833,320.5 287.5,320.5C 287.5,322.167 287.5,323.833 287.5,325.5C 286.833,383.167 286.167,440.833 285.5,498.5C 285.832,440.664 285.499,382.998 284.5,325.5C 285.301,323.958 285.634,322.292 285.5,320.5 Z"/></g>
<g><path style="opacity:1" fill="#38443e" d="M 748.5,314.5 C 748.833,314.5 749.167,314.5 749.5,314.5C 748.962,316.117 748.629,317.784 748.5,319.5C 746.265,319.205 744.265,319.539 742.5,320.5C 742.333,442.167 742.5,563.834 743,685.5C 744.451,685.736 745.951,685.736 747.5,685.5C 748.551,686.222 749.218,687.222 749.5,688.5C 747.716,687.28 746.05,687.28 744.5,688.5C 744.167,688.5 743.833,688.5 743.5,688.5C 743.217,687.711 742.717,687.044 742,686.5C 741.172,562.806 741.339,439.139 742.5,315.5C 744.735,315.795 746.735,315.461 748.5,314.5 Z"/></g>
<g><path style="opacity:1" fill="#41624c" d="M 661.5,312.5 C 661.833,312.5 662.167,312.5 662.5,312.5C 661.874,315.672 661.207,318.839 660.5,322C 660.833,322.333 661.167,322.667 661.5,323C 659.408,324.925 656.908,326.092 654,326.5C 653.5,372.832 653.333,419.165 653.5,465.5C 653.167,465.5 652.833,465.5 652.5,465.5C 652.168,416.997 652.501,368.664 653.5,320.5C 655.833,320.5 658.167,320.5 660.5,320.5C 660.194,317.615 660.527,314.948 661.5,312.5 Z"/></g>
<g><path style="opacity:1" fill="#2e2e2e" d="M 742.5,320.5 C 744.792,320.244 746.959,320.577 749,321.5C 749.167,382.167 749.333,442.833 749.5,503.5C 749.5,564.504 748.833,625.17 747.5,685.5C 745.951,685.736 744.451,685.736 743,685.5C 742.5,563.834 742.333,442.167 742.5,320.5 Z"/></g>
<g><path style="opacity:1" fill="#2f3030" d="M 255.5,320.5 C 255.5,322.5 255.5,324.5 255.5,326.5C 256.543,446.022 256.543,565.688 255.5,685.5C 254.167,685.5 252.833,685.5 251.5,685.5C 251.81,564.362 251.477,443.362 250.5,322.5C 251.668,320.783 253.335,320.116 255.5,320.5 Z"/></g>
<g><path style="opacity:1" fill="#27a756" d="M 285.5,320.5 C 285.634,322.292 285.301,323.958 284.5,325.5C 284.333,443.834 284.5,562.167 285,680.5C 285.567,683.168 286.067,685.834 286.5,688.5C 285.685,687.571 284.852,686.571 284,685.5C 283.333,564.5 283.333,443.5 284,322.5C 284.278,321.584 284.778,320.918 285.5,320.5 Z"/></g>
<g><path style="opacity:1" fill="#36433c" d="M 287.5,325.5 C 286.498,443.996 286.498,562.329 287.5,680.5C 286.782,619.994 286.116,559.327 285.5,498.5C 286.167,440.833 286.833,383.167 287.5,325.5 Z"/></g>
<g><path style="opacity:1" fill="#39453f" d="M 339.5,320.5 C 341.167,320.5 342.833,320.5 344.5,320.5C 344.5,364.5 344.5,408.5 344.5,452.5C 343.501,412.003 343.168,371.337 343.5,330.5C 343.5,328.833 343.5,327.167 343.5,325.5C 342.167,325.5 340.833,325.5 339.5,325.5C 339.5,323.833 339.5,322.167 339.5,320.5 Z"/></g>
<g><path style="opacity:1" fill="#37433d" d="M 710.5,317.5 C 710.263,318.791 710.596,319.791 711.5,320.5C 711.167,379.837 711.5,439.17 712.5,498.5C 713.308,498.808 713.975,499.308 714.5,500C 714.5,501.333 714.5,502.667 714.5,504C 712.875,504.853 712.542,505.853 713.5,507C 712.773,508.399 712.273,509.899 712,511.5C 711.833,567.668 711.333,623.668 710.5,679.5C 711.157,558.684 711.157,438.017 710.5,317.5 Z"/></g>
<g><path style="opacity:1" fill="#44514a" d="M 711.5,320.5 C 712.833,320.5 714.167,320.5 715.5,320.5C 715.5,322.167 715.5,323.833 715.5,325.5C 715.16,387.324 715.16,449.324 715.5,511.5C 715.829,567.572 715.496,623.572 714.5,679.5C 711.741,679.933 710.408,681.6 710.5,684.5C 709.167,682.833 709.167,681.167 710.5,679.5C 711.333,623.668 711.833,567.668 712,511.5C 712.273,509.899 712.773,508.399 713.5,507C 712.542,505.853 712.875,504.853 714.5,504C 714.5,502.667 714.5,501.333 714.5,500C 713.975,499.308 713.308,498.808 712.5,498.5C 711.5,439.17 711.167,379.837 711.5,320.5 Z"/></g>
<g><path style="opacity:1" fill="#2b9450" d="M 197.5,327.5 C 197.833,327.5 198.167,327.5 198.5,327.5C 199.5,447.999 199.833,568.666 199.5,689.5C 199.167,689.5 198.833,689.5 198.5,689.5C 197.5,569.001 197.167,448.334 197.5,327.5 Z"/></g>
<g><path style="opacity:1" fill="#2e2e2e" d="M 343.5,330.5 C 343.168,371.337 343.501,412.003 344.5,452.5C 344.5,457.167 344.5,461.833 344.5,466.5C 386.33,467.499 428.33,467.832 470.5,467.5C 470.5,468.5 470.5,469.5 470.5,470.5C 470.631,471.239 470.464,471.906 470,472.5C 430.958,471.918 391.291,471.918 351,472.5C 349,471.833 347,471.167 345,470.5C 341.392,471.949 337.892,471.783 334.5,470C 335.833,469.333 335.833,468.667 334.5,468C 336.433,467.749 338.266,467.249 340,466.5C 341.544,462.188 340.044,460.022 335.5,460C 338.879,459.289 340.379,457.122 340,453.5C 340.333,413.167 340.667,372.833 341,332.5C 341.708,331.619 342.542,330.953 343.5,330.5 Z"/></g>
<g><path style="opacity:1" fill="#2a8a4d" d="M 715.5,325.5 C 715.833,325.5 716.167,325.5 716.5,325.5C 716.5,387.5 716.5,449.5 716.5,511.5C 716.167,511.5 715.833,511.5 715.5,511.5C 715.16,449.324 715.16,387.324 715.5,325.5 Z"/></g>
<g><path style="opacity:1" fill="#8db19a" d="M 168.5,441.5 C 167.252,443.69 165.586,444.023 163.5,442.5C 164.172,441.733 165.005,441.066 166,440.5C 166.951,440.884 167.784,441.217 168.5,441.5 Z"/></g>
<g><path style="opacity:1" fill="#8db19a" d="M 176.5,443.5 C 176.5,442.833 176.5,442.167 176.5,441.5C 178.342,439.966 179.675,440.3 180.5,442.5C 179.311,443.429 177.978,443.762 176.5,443.5 Z"/></g>
<g><path style="opacity:1" fill="#8db19a" d="M 824.5,441.5 C 824.167,442.167 823.833,442.833 823.5,443.5C 821.5,443.5 819.5,443.5 817.5,443.5C 817.351,442.448 817.517,441.448 818,440.5C 820.28,440.912 822.447,441.246 824.5,441.5 Z"/></g>
<g><path style="opacity:1" fill="#8db19a" d="M 836.5,442.5 C 836.5,442.833 836.5,443.167 836.5,443.5C 833.447,443.889 830.78,443.223 828.5,441.5C 830.891,441.849 833.058,441.516 835,440.5C 835.717,441.044 836.217,441.711 836.5,442.5 Z"/></g>
<g><path style="opacity:1" fill="#27a756" d="M 163.5,442.5 C 161.657,443.283 159.657,443.95 157.5,444.5C 156.571,445.689 156.238,447.022 156.5,448.5C 152.721,447.68 150.388,449.013 149.5,452.5C 148.833,448.5 150.5,446.833 154.5,447.5C 154.421,446.07 154.754,444.736 155.5,443.5C 158.086,442.52 160.753,442.187 163.5,442.5 Z"/></g>
<g><path style="opacity:1" fill="#4a5a51" d="M 176.5,441.5 C 176.5,442.167 176.5,442.833 176.5,443.5C 175.167,445.167 175.167,446.833 176.5,448.5C 176.5,450.167 176.5,451.833 176.5,453.5C 176.167,453.5 175.833,453.5 175.5,453.5C 175.167,453.5 174.833,453.5 174.5,453.5C 174.82,450.102 174.487,446.768 173.5,443.5C 169.555,444.268 165.555,444.768 161.5,445C 161.167,446 160.833,447 160.5,448C 159.207,448.49 157.873,448.657 156.5,448.5C 156.238,447.022 156.571,445.689 157.5,444.5C 159.657,443.95 161.657,443.283 163.5,442.5C 165.586,444.023 167.252,443.69 168.5,441.5C 171.477,441.316 174.144,441.316 176.5,441.5 Z"/></g>
<g><path style="opacity:1" fill="#4c5851" d="M 824.5,441.5 C 825.833,441.5 827.167,441.5 828.5,441.5C 830.78,443.223 833.447,443.889 836.5,443.5C 837.492,443.328 838.158,443.662 838.5,444.5C 834.167,444.5 829.833,444.5 825.5,444.5C 825.158,443.662 824.492,443.328 823.5,443.5C 823.833,442.833 824.167,442.167 824.5,441.5 Z"/></g>
<g><path style="opacity:1" fill="#2a9550" d="M 836.5,443.5 C 836.5,443.167 836.5,442.833 836.5,442.5C 841.5,441.5 843.5,443.5 842.5,448.5C 841.978,446.781 840.978,445.448 839.5,444.5C 839.167,444.5 838.833,444.5 838.5,444.5C 838.158,443.662 837.492,443.328 836.5,443.5 Z"/></g>
<g><path style="opacity:1" fill="#323232" d="M 174.5,453.5 C 174.667,488.502 174.5,523.502 174,558.5C 173.586,558.957 173.086,559.291 172.5,559.5C 168.889,558.738 165.222,558.238 161.5,558C 161.167,557 160.833,556 160.5,555C 159.207,554.51 157.873,554.343 156.5,554.5C 153.318,553.97 150.318,552.97 147.5,551.5C 147.768,549.901 147.434,548.568 146.5,547.5C 146.739,545.533 146.406,543.699 145.5,542C 143.19,541.503 140.857,541.337 138.5,541.5C 136.541,516.66 135.874,491.66 136.5,466.5C 138.176,465.817 138.843,464.483 138.5,462.5C 145.132,463.863 148.465,461.196 148.5,454.5C 148.833,454.5 149.167,454.5 149.5,454.5C 151.201,454.034 152.701,454.034 154,454.5C 155.319,452.713 156.152,450.713 156.5,448.5C 157.873,448.657 159.207,448.49 160.5,448C 160.833,447 161.167,446 161.5,445C 165.555,444.768 169.555,444.268 173.5,443.5C 174.487,446.768 174.82,450.102 174.5,453.5 Z"/></g>
<g><path style="opacity:1" fill="#323333" d="M 825.5,444.5 C 829.833,444.5 834.167,444.5 838.5,444.5C 838.833,444.5 839.167,444.5 839.5,444.5C 840.036,447.555 840.869,450.555 842,453.5C 843.699,454.406 845.533,454.739 847.5,454.5C 848.833,454.5 850.167,454.5 851.5,454.5C 851.32,459.983 853.987,462.317 859.5,461.5C 859.077,463.781 859.744,465.448 861.5,466.5C 861.823,490.908 861.49,515.241 860.5,539.5C 858.858,541.081 856.858,541.747 854.5,541.5C 854.747,543.858 854.081,545.858 852.5,547.5C 852.768,549.099 852.434,550.432 851.5,551.5C 849.473,551.338 847.473,551.505 845.5,552C 843.881,552.236 842.881,553.069 842.5,554.5C 841.698,555.952 841.198,557.618 841,559.5C 840.329,558.748 839.496,558.414 838.5,558.5C 834.167,558.5 829.833,558.5 825.5,558.5C 825.5,521.5 825.5,484.5 825.5,447.5C 825.5,446.5 825.5,445.5 825.5,444.5 Z"/></g>
<g><path style="opacity:1" fill="#2b894d" d="M 823.5,443.5 C 824.492,443.328 825.158,443.662 825.5,444.5C 825.5,445.5 825.5,446.5 825.5,447.5C 824.833,447.833 824.167,448.167 823.5,448.5C 823.5,446.833 823.5,445.167 823.5,443.5 Z"/></g>
<g><path style="opacity:1" fill="#44534a" d="M 825.5,447.5 C 825.5,484.5 825.5,521.5 825.5,558.5C 829.833,558.5 834.167,558.5 838.5,558.5C 835.695,559.319 832.695,559.819 829.5,560C 828.648,561.728 827.648,561.895 826.5,560.5C 824.847,524.884 823.847,489.217 823.5,453.5C 823.5,451.833 823.5,450.167 823.5,448.5C 824.167,448.167 824.833,447.833 825.5,447.5 Z"/></g>
<g><path style="opacity:1" fill="#8db19a" d="M 176.5,448.5 C 180.552,448.32 181.885,449.987 180.5,453.5C 179.167,453.5 177.833,453.5 176.5,453.5C 176.5,451.833 176.5,450.167 176.5,448.5 Z"/></g>
<g><path style="opacity:1" fill="#8db19a" d="M 823.5,448.5 C 823.5,450.167 823.5,451.833 823.5,453.5C 821.473,453.662 819.473,453.495 817.5,453C 816.167,451.667 816.167,450.333 817.5,449C 819.473,448.505 821.473,448.338 823.5,448.5 Z"/></g>
<g><path style="opacity:1" fill="#3d5746" d="M 156.5,448.5 C 156.152,450.713 155.319,452.713 154,454.5C 152.701,454.034 151.201,454.034 149.5,454.5C 149.5,454.167 149.5,453.833 149.5,453.5C 149.5,453.167 149.5,452.833 149.5,452.5C 150.388,449.013 152.721,447.68 156.5,448.5 Z"/></g>
<g><path style="opacity:1" fill="#424f48" d="M 839.5,444.5 C 840.978,445.448 841.978,446.781 842.5,448.5C 843.568,449.434 844.901,449.768 846.5,449.5C 846.366,451.292 846.699,452.958 847.5,454.5C 845.533,454.739 843.699,454.406 842,453.5C 840.869,450.555 840.036,447.555 839.5,444.5 Z"/></g>
<g><path style="opacity:1" fill="#2a8d4e" d="M 842.5,448.5 C 844.167,448.5 845.833,448.5 847.5,448.5C 847.5,449.833 847.5,451.167 847.5,452.5C 849.415,452.216 851.081,452.549 852.5,453.5C 852.5,453.833 852.5,454.167 852.5,454.5C 852.167,454.5 851.833,454.5 851.5,454.5C 850.167,454.5 848.833,454.5 847.5,454.5C 846.699,452.958 846.366,451.292 846.5,449.5C 844.901,449.768 843.568,449.434 842.5,448.5 Z"/></g>
<g><path style="opacity:1" fill="#7fa88d" d="M 149.5,453.5 C 149.5,453.833 149.5,454.167 149.5,454.5C 149.167,454.5 148.833,454.5 148.5,454.5C 147.978,456.219 146.978,457.552 145.5,458.5C 144.756,455.05 146.09,453.384 149.5,453.5 Z"/></g>
<g><path style="opacity:1" fill="#3a4740" d="M 174.5,453.5 C 174.833,453.5 175.167,453.5 175.5,453.5C 175.832,489.671 175.498,525.671 174.5,561.5C 169.026,560.042 163.36,559.209 157.5,559C 156.62,557.644 156.286,556.144 156.5,554.5C 157.873,554.343 159.207,554.51 160.5,555C 160.833,556 161.167,557 161.5,558C 165.222,558.238 168.889,558.738 172.5,559.5C 173.086,559.291 173.586,558.957 174,558.5C 174.5,523.502 174.667,488.502 174.5,453.5 Z"/></g>
<g><path style="opacity:1" fill="#8db19a" d="M 852.5,453.5 C 853.966,454.347 854.8,455.68 855,457.5C 857.026,457.915 858.526,458.915 859.5,460.5C 855.307,460.638 852.973,458.638 852.5,454.5C 852.5,454.167 852.5,453.833 852.5,453.5 Z"/></g>
<g><path style="opacity:1" fill="#25b85a" d="M 175.5,453.5 C 175.833,453.5 176.167,453.5 176.5,453.5C 177.833,453.5 179.167,453.5 180.5,453.5C 179.791,454.404 178.791,454.737 177.5,454.5C 177.667,490.168 177.5,525.835 177,561.5C 175.991,562.658 174.658,563.325 173,563.5C 171.615,563.486 170.449,563.152 169.5,562.5C 171.415,562.784 173.081,562.451 174.5,561.5C 175.498,525.671 175.832,489.671 175.5,453.5 Z"/></g>
<g><path style="opacity:1" fill="#8db19a" d="M 145.5,458.5 C 145.389,459.117 145.056,459.617 144.5,460C 142.08,460.29 139.746,460.79 137.5,461.5C 137.414,460.504 137.748,459.671 138.5,459C 140.81,458.503 143.143,458.337 145.5,458.5 Z"/></g>
<g><path style="opacity:1" fill="#5b6761" d="M 148.5,454.5 C 148.465,461.196 145.132,463.863 138.5,462.5C 138.843,464.483 138.176,465.817 136.5,466.5C 136.5,466.167 136.5,465.833 136.5,465.5C 137.434,464.432 137.768,463.099 137.5,461.5C 139.746,460.79 142.08,460.29 144.5,460C 145.056,459.617 145.389,459.117 145.5,458.5C 146.978,457.552 147.978,456.219 148.5,454.5 Z"/></g>
<g><path style="opacity:1" fill="#8db19a" d="M 137.5,461.5 C 137.768,463.099 137.434,464.432 136.5,465.5C 136.167,465.5 135.833,465.5 135.5,465.5C 135.157,463.517 135.824,462.183 137.5,461.5 Z"/></g>
<g><path style="opacity:1" fill="#5f6b65" d="M 851.5,454.5 C 851.833,454.5 852.167,454.5 852.5,454.5C 852.973,458.638 855.307,460.638 859.5,460.5C 860.167,460.5 860.5,460.833 860.5,461.5C 860.366,463.292 860.699,464.958 861.5,466.5C 859.744,465.448 859.077,463.781 859.5,461.5C 853.987,462.317 851.32,459.983 851.5,454.5 Z"/></g>
<g><path style="opacity:1" fill="#8db19a" d="M 860.5,461.5 C 862.213,462.635 862.88,464.302 862.5,466.5C 862.167,466.5 861.833,466.5 861.5,466.5C 860.699,464.958 860.366,463.292 860.5,461.5 Z"/></g>
<g><path style="opacity:1" fill="#29914f" d="M 332.5,302.5 C 333.477,305.287 333.81,308.287 333.5,311.5C 339.905,310.406 342.238,313.073 340.5,319.5C 342.167,319.5 343.833,319.5 345.5,319.5C 345.5,368.167 345.5,416.833 345.5,465.5C 447.833,465.5 550.167,465.5 652.5,465.5C 593.833,466.167 535.167,466.833 476.5,467.5C 476.167,467.5 475.833,467.5 475.5,467.5C 431.906,466.506 388.239,466.172 344.5,466.5C 344.5,461.833 344.5,457.167 344.5,452.5C 344.5,408.5 344.5,364.5 344.5,320.5C 342.833,320.5 341.167,320.5 339.5,320.5C 339.663,318.143 339.497,315.81 339,313.5C 337.333,312.167 335.667,312.167 334,313.5C 333.283,312.956 332.783,312.289 332.5,311.5C 332.5,308.5 332.5,305.5 332.5,302.5 Z"/></g>
<g><path style="opacity:1" fill="#337149" d="M 135.5,465.5 C 135.833,465.5 136.167,465.5 136.5,465.5C 136.5,465.833 136.5,466.167 136.5,466.5C 135.874,491.66 136.541,516.66 138.5,541.5C 138.167,541.5 137.833,541.5 137.5,541.5C 135.509,516.522 134.843,491.189 135.5,465.5 Z"/></g>
<g><path style="opacity:1" fill="#2c7046" d="M 861.5,466.5 C 861.833,466.5 862.167,466.5 862.5,466.5C 863.157,491.19 862.49,515.523 860.5,539.5C 861.49,515.241 861.823,490.908 861.5,466.5 Z"/></g>
<g><path style="opacity:1" fill="#404e46" d="M 652.5,465.5 C 652.833,465.5 653.167,465.5 653.5,465.5C 613.18,467.494 572.514,468.161 531.5,467.5C 531.5,468.833 531.5,470.167 531.5,471.5C 529.856,471.286 528.356,471.62 527,472.5C 525.452,476.376 523.618,480.043 521.5,483.5C 519.257,484.474 516.924,484.808 514.5,484.5C 514.785,486.288 514.452,487.955 513.5,489.5C 510.308,491.519 508.808,494.519 509,498.5C 506.959,499.423 504.792,499.756 502.5,499.5C 502.5,500.833 502.5,502.167 502.5,503.5C 504.527,503.338 506.527,503.505 508.5,504C 509.12,506.473 509.786,508.973 510.5,511.5C 513.418,512.919 514.918,515.252 515,518.5C 516.989,519.303 519.155,519.803 521.5,520C 521.132,521.473 521.632,522.973 523,524.5C 523.333,524.167 523.667,523.833 524,523.5C 525.368,524.993 525.535,526.493 524.5,528C 526.285,530.226 528.618,531.392 531.5,531.5C 531.198,534.059 531.532,536.393 532.5,538.5C 533.492,538.328 534.158,538.662 534.5,539.5C 531.721,539.721 529.054,539.388 526.5,538.5C 526.799,536.396 526.466,534.396 525.5,532.5C 521.567,530.619 520.233,528.119 521.5,525C 518.776,523.665 516.11,523.498 513.5,524.5C 512.626,521.103 511.459,517.77 510,514.5C 508.981,513.313 507.814,512.313 506.5,511.5C 504.93,511.694 503.43,511.694 502,511.5C 501,502.167 500,502.167 499,511.5C 497.442,513.768 495.276,514.934 492.5,515C 492.529,519.109 490.529,520.943 486.5,520.5C 485.973,523.231 485.14,525.898 484,528.5C 482.676,529.88 481.343,530.214 480,529.5C 479.333,531.5 478,532.833 476,533.5C 475.506,535.134 475.34,536.801 475.5,538.5C 473.183,539.007 470.516,539.34 467.5,539.5C 468.209,538.596 469.209,538.263 470.5,538.5C 470.5,536.833 470.5,535.167 470.5,533.5C 471.635,531.787 473.302,531.12 475.5,531.5C 475.5,530.5 475.5,529.5 475.5,528.5C 476.5,528.5 477.5,528.5 478.5,528.5C 478.5,526.833 478.5,525.167 478.5,523.5C 480.429,523.769 482.095,523.269 483.5,522C 483.167,521.667 482.833,521.333 482.5,521C 484.355,518.955 485.689,516.621 486.5,514C 489.287,512.227 492.287,511.06 495.5,510.5C 495.5,508.167 495.5,505.833 495.5,503.5C 496.675,503.719 497.675,503.386 498.5,502.5C 496.345,499.546 495.178,496.212 495,492.5C 492.239,491.204 489.405,490.037 486.5,489C 485.689,486.379 484.355,484.045 482.5,482C 477.699,481.683 476.365,479.35 478.5,475C 476.29,472.727 473.623,471.227 470.5,470.5C 470.5,469.5 470.5,468.5 470.5,467.5C 428.33,467.832 386.33,467.499 344.5,466.5C 388.239,466.172 431.906,466.506 475.5,467.5C 476.048,468.688 476.381,469.855 476.5,471C 478.76,472.689 481.26,473.856 484,474.5C 483.257,477.882 484.424,480.715 487.5,483C 488.784,483.684 489.951,483.517 491,482.5C 491.495,484.473 491.662,486.473 491.5,488.5C 497.666,488.841 500.499,492.174 500,498.5C 500.333,496.5 500.667,494.5 501,492.5C 502.226,490.452 503.726,490.119 505.5,491.5C 504.791,492.404 503.791,492.737 502.5,492.5C 502.5,494.5 502.5,496.5 502.5,498.5C 508.63,498.804 509.963,496.471 506.5,491.5C 509.239,488.098 511.906,484.598 514.5,481C 516.473,480.505 518.473,480.338 520.5,480.5C 519.761,475.882 521.427,472.549 525.5,470.5C 526.386,469.675 526.719,468.675 526.5,467.5C 509.833,467.5 493.167,467.5 476.5,467.5C 535.167,466.833 593.833,466.167 652.5,465.5 Z"/></g>
<g><path style="opacity:1" fill="#313131" d="M 475.5,467.5 C 475.833,467.5 476.167,467.5 476.5,467.5C 493.167,467.5 509.833,467.5 526.5,467.5C 526.719,468.675 526.386,469.675 525.5,470.5C 521.427,472.549 519.761,475.882 520.5,480.5C 518.473,480.338 516.473,480.505 514.5,481C 511.906,484.598 509.239,488.098 506.5,491.5C 506.167,491.5 505.833,491.5 505.5,491.5C 503.726,490.119 502.226,490.452 501,492.5C 500.667,494.5 500.333,496.5 500,498.5C 500.499,492.174 497.666,488.841 491.5,488.5C 491.662,486.473 491.495,484.473 491,482.5C 489.951,483.517 488.784,483.684 487.5,483C 484.424,480.715 483.257,477.882 484,474.5C 481.26,473.856 478.76,472.689 476.5,471C 476.381,469.855 476.048,468.688 475.5,467.5 Z"/></g>
<g><path style="opacity:1" fill="#66716b" d="M 505.5,491.5 C 505.833,491.5 506.167,491.5 506.5,491.5C 509.963,496.471 508.63,498.804 502.5,498.5C 502.5,496.5 502.5,494.5 502.5,492.5C 503.791,492.737 504.791,492.404 505.5,491.5 Z"/></g>
<g><path style="opacity:1" fill="#303031" d="M 526.5,538.5 C 509.333,538.564 492.333,538.564 475.5,538.5C 475.34,536.801 475.506,535.134 476,533.5C 478,532.833 479.333,531.5 480,529.5C 481.343,530.214 482.676,529.88 484,528.5C 485.14,525.898 485.973,523.231 486.5,520.5C 490.529,520.943 492.529,519.109 492.5,515C 495.276,514.934 497.442,513.768 499,511.5C 500,502.167 501,502.167 502,511.5C 503.43,511.694 504.93,511.694 506.5,511.5C 507.814,512.313 508.981,513.313 510,514.5C 511.459,517.77 512.626,521.103 513.5,524.5C 516.11,523.498 518.776,523.665 521.5,525C 520.233,528.119 521.567,530.619 525.5,532.5C 526.466,534.396 526.799,536.396 526.5,538.5 Z"/></g>
<g><path style="opacity:1" fill="#3c5d48" d="M 284.5,325.5 C 285.499,382.998 285.832,440.664 285.5,498.5C 286.116,559.327 286.782,619.994 287.5,680.5C 288.653,682.432 288.653,684.432 287.5,686.5C 288.812,690.111 289.812,693.777 290.5,697.5C 292.415,697.216 294.081,697.549 295.5,698.5C 293.5,698.5 291.5,698.5 289.5,698.5C 289.289,695.152 288.289,692.152 286.5,689.5C 286.5,689.167 286.5,688.833 286.5,688.5C 286.067,685.834 285.567,683.168 285,680.5C 284.5,562.167 284.333,443.834 284.5,325.5 Z"/></g>
<g><path style="opacity:1" fill="#289b52" d="M 715.5,511.5 C 715.833,511.5 716.167,511.5 716.5,511.5C 716.832,569.669 716.499,627.669 715.5,685.5C 715.795,683.265 715.461,681.265 714.5,679.5C 715.496,623.572 715.829,567.572 715.5,511.5 Z"/></g>
<g><path style="opacity:1" fill="#27a455" d="M 823.5,453.5 C 823.847,489.217 824.847,524.884 826.5,560.5C 825.833,560.5 825.167,560.5 824.5,560.5C 823.833,560.5 823.5,560.167 823.5,559.5C 823.5,524.167 823.5,488.833 823.5,453.5 Z"/></g>
<g><path style="opacity:1" fill="#2d2d2e" d="M 651.5,538.5 C 612.8,538.225 573.8,538.558 534.5,539.5C 534.158,538.662 533.492,538.328 532.5,538.5C 532.5,535.167 532.5,531.833 532.5,528.5C 534.665,528.116 536.332,528.783 537.5,530.5C 572.495,531.667 607.495,531.833 642.5,531C 645.513,529.036 648.513,529.203 651.5,531.5C 658.061,527.51 661.394,529.343 661.5,537C 660.686,577.82 660.186,618.653 660,659.5C 659.667,664.5 659.333,669.5 659,674.5C 657.667,674.5 656.333,674.5 655,674.5C 654.5,629.168 654.333,583.835 654.5,538.5C 653.5,538.5 652.5,538.5 651.5,538.5 Z"/></g>
<g><path style="opacity:1" fill="#2c2c2c" d="M 470.5,533.5 C 470.5,535.167 470.5,536.833 470.5,538.5C 469.209,538.263 468.209,538.596 467.5,539.5C 426.736,538.171 386.069,538.171 345.5,539.5C 345.167,539.5 344.833,539.5 344.5,539.5C 343.501,584.664 343.168,629.997 343.5,675.5C 342.5,675.5 341.5,675.5 340.5,675.5C 340.833,630.162 340.5,584.828 339.5,539.5C 337.929,538.691 336.262,538.357 334.5,538.5C 334.34,536.801 334.506,535.134 335,533.5C 337.972,532.974 340.472,531.641 342.5,529.5C 343.737,529.556 344.737,530.056 345.5,531C 387.385,530.847 429.051,531.68 470.5,533.5 Z"/></g>
<g><path style="opacity:1" fill="#39463f" d="M 344.5,539.5 C 344.5,588.167 344.5,636.833 344.5,685.5C 342.833,685.5 341.167,685.5 339.5,685.5C 339.215,683.712 339.548,682.045 340.5,680.5C 341.425,679.359 342.259,679.359 343,680.5C 343.494,678.866 343.66,677.199 343.5,675.5C 343.168,629.997 343.501,584.664 344.5,539.5 Z"/></g>
<g><path style="opacity:1" fill="#2c894e" d="M 467.5,539.5 C 470.516,539.34 473.183,539.007 475.5,538.5C 492.333,538.564 509.333,538.564 526.5,538.5C 529.054,539.388 531.721,539.721 534.5,539.5C 573.8,538.558 612.8,538.225 651.5,538.5C 653.487,585.282 654.154,632.282 653.5,679.5C 653.5,681.167 653.5,682.833 653.5,684.5C 652.662,684.158 652.328,683.492 652.5,682.5C 652.5,635.167 652.5,587.833 652.5,540.5C 550.167,540.5 447.833,540.5 345.5,540.5C 345.5,540.167 345.5,539.833 345.5,539.5C 386.069,538.171 426.736,538.171 467.5,539.5 Z"/></g>
<g><path style="opacity:1" fill="#29914f" d="M 344.5,539.5 C 344.833,539.5 345.167,539.5 345.5,539.5C 345.5,539.833 345.5,540.167 345.5,540.5C 345.5,589.167 345.5,637.833 345.5,686.5C 343.833,686.5 342.167,686.5 340.5,686.5C 340.663,688.857 340.497,691.19 340,693.5C 338.644,694.38 337.144,694.714 335.5,694.5C 335.737,695.791 335.404,696.791 334.5,697.5C 333.833,693.5 335.5,691.833 339.5,692.5C 339.5,690.167 339.5,687.833 339.5,685.5C 341.167,685.5 342.833,685.5 344.5,685.5C 344.5,636.833 344.5,588.167 344.5,539.5 Z"/></g>
<g><path style="opacity:1" fill="#08f41b" d="M 647.5,541.5 C 648.496,541.414 649.329,541.748 650,542.5C 650.993,582.31 650.66,621.977 649,661.5C 647.98,660.109 647.147,658.609 646.5,657C 647.46,618.588 647.794,580.088 647.5,541.5 Z"/></g>
<g><path style="opacity:1" fill="#2a8d4e" d="M 860.5,539.5 C 859.952,542.084 858.285,543.084 855.5,542.5C 855.5,544.167 855.5,545.833 855.5,547.5C 854.5,547.5 853.5,547.5 852.5,547.5C 854.081,545.858 854.747,543.858 854.5,541.5C 856.858,541.747 858.858,541.081 860.5,539.5 Z"/></g>
<g><path style="opacity:1" fill="#2b8d4e" d="M 137.5,541.5 C 137.833,541.5 138.167,541.5 138.5,541.5C 140.857,541.337 143.19,541.503 145.5,542C 146.406,543.699 146.739,545.533 146.5,547.5C 146.167,547.5 145.833,547.5 145.5,547.5C 144.699,545.958 144.366,544.292 144.5,542.5C 141.941,542.802 139.607,542.468 137.5,541.5 Z"/></g>
<g><path style="opacity:1" fill="#8db19a" d="M 145.5,547.5 C 145.833,547.5 146.167,547.5 146.5,547.5C 147.434,548.568 147.768,549.901 147.5,551.5C 147.5,551.833 147.5,552.167 147.5,552.5C 145.787,551.365 145.12,549.698 145.5,547.5 Z"/></g>
<g><path style="opacity:1" fill="#42604c" d="M 851.5,551.5 C 850.791,552.404 849.791,552.737 848.5,552.5C 846.718,553.72 844.718,554.386 842.5,554.5C 842.881,553.069 843.881,552.236 845.5,552C 847.473,551.505 849.473,551.338 851.5,551.5 Z"/></g>
<g><path style="opacity:1" fill="#289e53" d="M 147.5,552.5 C 147.5,552.167 147.5,551.833 147.5,551.5C 150.318,552.97 153.318,553.97 156.5,554.5C 156.286,556.144 156.62,557.644 157.5,559C 163.36,559.209 169.026,560.042 174.5,561.5C 173.081,562.451 171.415,562.784 169.5,562.5C 165.049,560.924 160.382,560.09 155.5,560C 154.62,558.644 154.286,557.144 154.5,555.5C 153.127,555.657 151.793,555.49 150.5,555C 149.922,553.583 148.922,552.75 147.5,552.5 Z"/></g>
<g><path style="opacity:1" fill="#08f41b" d="M 814.5,559.5 C 816.973,559.947 817.14,560.947 815,562.5C 813.272,561.648 813.105,560.648 814.5,559.5 Z"/></g>
<g><path style="opacity:1" fill="#8db19a" d="M 823.5,559.5 C 823.5,560.167 823.833,560.5 824.5,560.5C 822.524,562.33 820.357,562.997 818,562.5C 817.517,561.552 817.351,560.552 817.5,559.5C 819.5,559.5 821.5,559.5 823.5,559.5 Z"/></g>
<g><path style="opacity:1" fill="#289d53" d="M 848.5,552.5 C 847.32,554.913 845.32,555.913 842.5,555.5C 842.5,557.167 842.5,558.833 842.5,560.5C 837.415,559.988 832.581,560.655 828,562.5C 826.97,562.164 826.47,561.497 826.5,560.5C 827.648,561.895 828.648,561.728 829.5,560C 832.695,559.819 835.695,559.319 838.5,558.5C 839.496,558.414 840.329,558.748 841,559.5C 841.198,557.618 841.698,555.952 842.5,554.5C 844.718,554.386 846.718,553.72 848.5,552.5 Z"/></g>
<g><path style="opacity:1" fill="#6e7c74" d="M 714.5,679.5 C 715.461,681.265 715.795,683.265 715.5,685.5C 714.167,685.5 712.833,685.5 711.5,685.5C 711.167,685.5 710.833,685.5 710.5,685.5C 710.5,685.167 710.5,684.833 710.5,684.5C 710.408,681.6 711.741,679.933 714.5,679.5 Z"/></g>
<g><path style="opacity:1" fill="#49574f" d="M 653.5,679.5 C 656.365,679.055 658.865,679.722 661,681.5C 661.548,685.17 662.048,688.837 662.5,692.5C 660.656,690.721 659.99,688.388 660.5,685.5C 657.941,685.802 655.607,685.468 653.5,684.5C 653.5,682.833 653.5,681.167 653.5,679.5 Z"/></g>
<g><path style="opacity:1" fill="#2a8f4e" d="M 710.5,685.5 C 710.833,685.5 711.167,685.5 711.5,685.5C 711.729,689.917 710.729,693.917 708.5,697.5C 708.5,696.5 708.5,695.5 708.5,694.5C 710.044,691.752 710.71,688.752 710.5,685.5 Z"/></g>
<g><path style="opacity:1" fill="#27a355" d="M 652.5,682.5 C 652.328,683.492 652.662,684.158 653.5,684.5C 655.607,685.468 657.941,685.802 660.5,685.5C 659.99,688.388 660.656,690.721 662.5,692.5C 662.833,692.5 663.167,692.5 663.5,692.5C 663.795,694.735 663.461,696.735 662.5,698.5C 662.725,696.284 661.892,694.617 660,693.5C 659.503,691.19 659.337,688.857 659.5,686.5C 657.143,686.663 654.81,686.497 652.5,686C 651.209,684.708 651.209,683.542 652.5,682.5 Z"/></g>
<g><path style="opacity:1" fill="#74877c" d="M 198.5,689.5 C 198.833,689.5 199.167,689.5 199.5,689.5C 201.176,690.183 201.843,691.517 201.5,693.5C 201.167,693.5 200.833,693.5 200.5,693.5C 198.896,692.713 198.229,691.38 198.5,689.5 Z"/></g>
<g><path style="opacity:1" fill="#299d53" d="M 797.5,688.5 C 797.665,691.85 797.498,695.183 797,698.5C 794.054,700.212 790.887,701.212 787.5,701.5C 787.768,704.119 787.435,706.619 786.5,709C 783.183,709.498 779.85,709.665 776.5,709.5C 776.167,709.5 775.833,709.5 775.5,709.5C 778.625,708.521 781.958,708.187 785.5,708.5C 785.401,705.763 785.735,703.096 786.5,700.5C 789.833,699.5 793.167,698.5 796.5,697.5C 796.756,695.208 796.423,693.041 795.5,691C 796.066,690.005 796.733,689.172 797.5,688.5 Z"/></g>
<g><path style="opacity:1" fill="#4b5851" d="M 251.5,692.5 C 250.637,693.94 250.637,695.274 251.5,696.5C 249.245,697.194 247.245,698.194 245.5,699.5C 244.582,694.505 246.582,692.172 251.5,692.5 Z"/></g>
<g><path style="opacity:1" fill="#4b5951" d="M 663.5,692.5 C 665.693,694.522 666.693,697.189 666.5,700.5C 665.833,700.5 665.167,700.5 664.5,700.5C 663.5,700.167 662.833,699.5 662.5,698.5C 663.461,696.735 663.795,694.735 663.5,692.5 Z"/></g>
<g><path style="opacity:1" fill="#2b8a4d" d="M 744.5,688.5 C 746.05,687.28 747.716,687.28 749.5,688.5C 749.32,692.682 749.987,696.682 751.5,700.5C 748.696,697.124 747.363,693.124 747.5,688.5C 746.5,688.5 745.5,688.5 744.5,688.5 Z"/></g>
<g><path style="opacity:1" fill="#5f7066" d="M 334.5,697.5 C 334.715,699.179 334.048,700.179 332.5,700.5C 332.167,700.5 331.833,700.5 331.5,700.5C 331.5,699.5 331.5,698.5 331.5,697.5C 332.5,697.5 333.5,697.5 334.5,697.5 Z"/></g>
<g><path style="opacity:1" fill="#396046" d="M 708.5,694.5 C 708.5,695.5 708.5,696.5 708.5,697.5C 706.469,697.972 704.802,698.972 703.5,700.5C 703.167,700.5 702.833,700.5 702.5,700.5C 702.5,699.5 702.5,698.5 702.5,697.5C 704.167,697.5 705.833,697.5 707.5,697.5C 707.263,696.209 707.596,695.209 708.5,694.5 Z"/></g>
<g><path style="opacity:1" fill="#465b4e" d="M 209.5,699.5 C 210.93,699.421 212.264,699.754 213.5,700.5C 214.474,702.743 214.808,705.076 214.5,707.5C 216.735,707.205 218.735,707.539 220.5,708.5C 217.751,708.726 215.084,708.393 212.5,707.5C 211.908,704.564 210.908,701.897 209.5,699.5 Z"/></g>
<g><path style="opacity:1" fill="#2a9651" d="M 286.5,689.5 C 288.289,692.152 289.289,695.152 289.5,698.5C 291.5,698.5 293.5,698.5 295.5,698.5C 299.918,699.83 301.585,702.83 300.5,707.5C 303.609,707.264 306.609,707.597 309.5,708.5C 310.791,708.263 311.791,708.596 312.5,709.5C 308.154,709.666 303.821,709.499 299.5,709C 299.71,701.378 296.044,698.212 288.5,699.5C 287.833,696.167 287.167,692.833 286.5,689.5 Z"/></g>
<g><path style="opacity:1" fill="#27aa56" d="M 751.5,700.5 C 752.492,700.328 753.158,700.662 753.5,701.5C 753.5,703.5 753.5,705.5 753.5,707.5C 752.732,705.285 752.065,702.952 751.5,700.5 Z"/></g>
<g><path style="opacity:1" fill="#495d50" d="M 221.5,708.5 C 225.833,707.167 230.167,707.167 234.5,708.5C 232.901,708.232 231.568,708.566 230.5,709.5C 228.297,709.065 226.297,709.065 224.5,709.5C 223.791,708.596 222.791,708.263 221.5,708.5 Z"/></g>
<g><path style="opacity:1" fill="#4f6958" d="M 309.5,708.5 C 312.167,707.167 314.833,707.167 317.5,708.5C 316.209,708.263 315.209,708.596 314.5,709.5C 313.833,710.833 313.167,710.833 312.5,709.5C 311.791,708.596 310.791,708.263 309.5,708.5 Z"/></g>
<g><path style="opacity:1" fill="#2c7046" d="M 753.5,701.5 C 754.461,703.265 754.795,705.265 754.5,707.5C 757.385,707.194 760.052,707.527 762.5,708.5C 759.287,708.81 756.287,708.477 753.5,707.5C 753.5,705.5 753.5,703.5 753.5,701.5 Z"/></g>
<g><path style="opacity:1" fill="#476050" d="M 786.5,700.5 C 785.735,703.096 785.401,705.763 785.5,708.5C 781.958,708.187 778.625,708.521 775.5,709.5C 774.298,708.595 772.964,708.595 771.5,709.5C 769.052,708.527 766.385,708.194 763.5,708.5C 769.979,707.509 776.646,707.176 783.5,707.5C 783.337,705.143 783.503,702.81 784,700.5C 784.77,699.402 785.603,699.402 786.5,700.5 Z"/></g>
<g><path style="opacity:1" fill="#28a154" d="M 200.5,693.5 C 200.833,693.5 201.167,693.5 201.5,693.5C 201.5,694.833 201.5,696.167 201.5,697.5C 203.857,697.337 206.19,697.503 208.5,698C 209.056,698.383 209.389,698.883 209.5,699.5C 210.908,701.897 211.908,704.564 212.5,707.5C 215.084,708.393 217.751,708.726 220.5,708.5C 220.833,708.5 221.167,708.5 221.5,708.5C 222.791,708.263 223.791,708.596 224.5,709.5C 224.167,709.5 223.833,709.5 223.5,709.5C 219.486,709.666 215.486,709.499 211.5,709C 211.728,702.113 208.394,698.779 201.5,699C 200.594,697.301 200.261,695.467 200.5,693.5 Z"/></g>
<g><path style="opacity:1" fill="#8db19a" d="M 230.5,709.5 C 230.833,709.5 231.167,709.5 231.5,709.5C 231.217,710.289 230.717,710.956 230,711.5C 228.667,711.5 227.333,711.5 226,711.5C 225.005,710.934 224.172,710.267 223.5,709.5C 223.833,709.5 224.167,709.5 224.5,709.5C 226.297,709.065 228.297,709.065 230.5,709.5 Z"/></g>
<g><path style="opacity:1" fill="#2a9651" d="M 244.5,701.5 C 244.5,704.167 244.5,706.833 244.5,709.5C 240.167,709.5 235.833,709.5 231.5,709.5C 231.167,709.5 230.833,709.5 230.5,709.5C 231.568,708.566 232.901,708.232 234.5,708.5C 237.391,707.597 240.391,707.264 243.5,707.5C 243.205,705.265 243.539,703.265 244.5,701.5 Z"/></g>
<g><path style="opacity:1" fill="#299d53" d="M 331.5,700.5 C 331.833,700.5 332.167,700.5 332.5,700.5C 331.432,701.434 330.099,701.768 328.5,701.5C 328.768,704.119 328.435,706.619 327.5,709C 323.179,709.499 318.846,709.666 314.5,709.5C 315.209,708.596 316.209,708.263 317.5,708.5C 320.5,708.5 323.5,708.5 326.5,708.5C 326.337,706.143 326.503,703.81 327,701.5C 328.356,700.62 329.856,700.286 331.5,700.5 Z"/></g>
<g><path style="opacity:1" fill="#2c9350" d="M 664.5,700.5 C 665.167,700.5 665.833,700.5 666.5,700.5C 668.833,700.5 671.167,700.5 673.5,700.5C 673.5,702.833 673.5,705.167 673.5,707.5C 681.484,707.717 689.484,707.717 697.5,707.5C 697.338,705.473 697.505,703.473 698,701.5C 699.356,700.62 700.856,700.286 702.5,700.5C 702.833,700.5 703.167,700.5 703.5,700.5C 702.432,701.434 701.099,701.768 699.5,701.5C 699.768,704.119 699.435,706.619 698.5,709C 689.84,709.5 681.173,709.666 672.5,709.5C 672.5,706.833 672.5,704.167 672.5,701.5C 669.615,701.806 666.948,701.473 664.5,700.5 Z"/></g>
<g><path style="opacity:1" fill="#8db19a" d="M 775.5,709.5 C 775.833,709.5 776.167,709.5 776.5,709.5C 776.217,710.289 775.717,710.956 775,711.5C 773.448,711.989 772.281,711.322 771.5,709.5C 772.964,708.595 774.298,708.595 775.5,709.5 Z"/></g>
</svg>
